G04 #@! TF.GenerationSoftware,KiCad,Pcbnew,(5.1.0)-1*
G04 #@! TF.CreationDate,2019-04-18T21:07:37-07:00*
G04 #@! TF.ProjectId,PCBv2,50434276-322e-46b6-9963-61645f706362,rev?*
G04 #@! TF.SameCoordinates,Original*
G04 #@! TF.FileFunction,Copper,L2,Bot*
G04 #@! TF.FilePolarity,Positive*
%FSLAX46Y46*%
G04 Gerber Fmt 4.6, Leading zero omitted, Abs format (unit mm)*
G04 Created by KiCad (PCBNEW (5.1.0)-1) date 2019-04-18 21:07:37*
%MOMM*%
%LPD*%
G04 APERTURE LIST*
%ADD10C,5.500000*%
%ADD11C,3.500000*%
%ADD12C,1.524000*%
%ADD13C,0.250000*%
G04 APERTURE END LIST*
D10*
X147500000Y-93750000D03*
X72000000Y-65250000D03*
X147500000Y-65250000D03*
D11*
X146176000Y-79660000D03*
X74040000Y-79660000D03*
D12*
X99300000Y-90830000D03*
X101840000Y-90830000D03*
X104380000Y-90830000D03*
X106920000Y-90830000D03*
X109460000Y-90830000D03*
X112000000Y-90830000D03*
X114540000Y-90830000D03*
X117080000Y-90830000D03*
X119620000Y-90830000D03*
X122160000Y-90830000D03*
X124700000Y-90830000D03*
X127240000Y-90830000D03*
X129780000Y-90830000D03*
X132320000Y-90830000D03*
X134860000Y-90830000D03*
X137400000Y-90830000D03*
X139940000Y-90830000D03*
X142480000Y-90830000D03*
X96760000Y-67970000D03*
X99300000Y-67970000D03*
X101840000Y-67970000D03*
X104380000Y-67970000D03*
X106920000Y-67970000D03*
X112000000Y-67970000D03*
X109460000Y-67970000D03*
X114540000Y-67970000D03*
X117080000Y-67970000D03*
X119620000Y-67970000D03*
X122160000Y-67970000D03*
X124700000Y-67970000D03*
X127240000Y-67970000D03*
X132320000Y-67970000D03*
X129780000Y-67970000D03*
X134860000Y-67970000D03*
X137400000Y-67970000D03*
X139940000Y-67970000D03*
X142480000Y-67970000D03*
X96760000Y-90830000D03*
X141550000Y-73030000D03*
X139010000Y-73030000D03*
X136470000Y-73030000D03*
X133930000Y-73030000D03*
X131390000Y-73030000D03*
X128850000Y-73030000D03*
X126310000Y-73030000D03*
X123770000Y-73030000D03*
X89200000Y-85642000D03*
X92248000Y-85642000D03*
X81072000Y-85642000D03*
X78024000Y-85642000D03*
X92248000Y-62782000D03*
X78024000Y-62782000D03*
D13*
X95182000Y-79660000D02*
X89200000Y-85642000D01*
X146176000Y-79660000D02*
X95182000Y-79660000D01*
X80022000Y-85642000D02*
X81072000Y-85642000D01*
X74040000Y-79660000D02*
X80022000Y-85642000D01*
M02*
