M48
; DRILL file {KiCad (5.1.0)-1} date 4/18/2019 9:03:47 PM
; FORMAT={-:-/ absolute / inch / decimal}
; #@! TF.CreationDate,2019-04-18T21:03:47-07:00
; #@! TF.GenerationSoftware,Kicad,Pcbnew,(5.1.0)-1
; #@! TF.FileFunction,Plated,1,2,PTH
FMAT,2
INCH
T1C0.0300
T2C0.0787
T3C0.1260
%
G90
G05
T1
X3.8094Y-2.676
X3.8094Y-3.576
X3.9094Y-2.676
X3.9094Y-3.576
X4.0094Y-2.676
X4.0094Y-3.576
X4.1094Y-2.676
X4.1094Y-3.576
X4.2094Y-2.676
X4.2094Y-3.576
X4.3094Y-2.676
X4.3094Y-3.576
X4.4094Y-2.676
X4.4094Y-3.576
X4.5094Y-2.676
X4.5094Y-3.576
X4.6094Y-2.676
X4.6094Y-3.576
X4.7094Y-2.676
X4.7094Y-3.576
X4.8094Y-2.676
X4.8094Y-3.576
X4.9094Y-2.676
X4.9094Y-3.576
X5.0094Y-2.676
X5.0094Y-3.576
X5.1094Y-2.676
X5.1094Y-3.576
X5.2094Y-2.676
X5.2094Y-3.576
X5.3094Y-2.676
X5.3094Y-3.576
X5.4094Y-2.676
X5.4094Y-3.576
X5.5094Y-2.676
X5.5094Y-3.576
X5.6094Y-2.676
X5.6094Y-3.576
X3.0718Y-2.4717
X3.0718Y-3.3717
X3.1918Y-3.3717
X3.5118Y-3.3717
X3.6318Y-2.4717
X3.6318Y-3.3717
X4.8728Y-2.8752
X4.9728Y-2.8752
X5.0728Y-2.8752
X5.1728Y-2.8752
X5.2728Y-2.8752
X5.3728Y-2.8752
X5.4728Y-2.8752
X5.5728Y-2.8752
T2
X2.915Y-3.1362
X5.755Y-3.1362
T3
X5.8071Y-3.6909
X5.8071Y-2.5689
X2.8346Y-2.5689
T0
M30
