G04 #@! TF.GenerationSoftware,KiCad,Pcbnew,(5.1.0)-1*
G04 #@! TF.CreationDate,2019-04-18T21:07:37-07:00*
G04 #@! TF.ProjectId,PCBv2,50434276-322e-46b6-9963-61645f706362,rev?*
G04 #@! TF.SameCoordinates,Original*
G04 #@! TF.FileFunction,Legend,Bot*
G04 #@! TF.FilePolarity,Positive*
%FSLAX46Y46*%
G04 Gerber Fmt 4.6, Leading zero omitted, Abs format (unit mm)*
G04 Created by KiCad (PCBNEW (5.1.0)-1) date 2019-04-18 21:07:37*
%MOMM*%
%LPD*%
G04 APERTURE LIST*
%ADD10C,0.120000*%
%ADD11C,0.150000*%
G04 APERTURE END LIST*
D10*
X71500000Y-89312000D02*
X71500000Y-69500000D01*
X141604000Y-89312000D02*
X71500000Y-89312000D01*
X71500000Y-69500000D02*
X141604000Y-69500000D01*
X148716000Y-89312000D02*
X141604000Y-89312000D01*
X148716000Y-69500000D02*
X148716000Y-89312000D01*
X141604000Y-69500000D02*
X148716000Y-69500000D01*
D11*
X112052571Y-81112571D02*
X111909714Y-81160190D01*
X111862095Y-81207809D01*
X111814476Y-81303047D01*
X111814476Y-81445904D01*
X111862095Y-81541142D01*
X111909714Y-81588761D01*
X112004952Y-81636380D01*
X112385904Y-81636380D01*
X112385904Y-80636380D01*
X112052571Y-80636380D01*
X111957333Y-80684000D01*
X111909714Y-80731619D01*
X111862095Y-80826857D01*
X111862095Y-80922095D01*
X111909714Y-81017333D01*
X111957333Y-81064952D01*
X112052571Y-81112571D01*
X112385904Y-81112571D01*
X111385904Y-81636380D02*
X111385904Y-80636380D01*
X111385904Y-81112571D02*
X110814476Y-81112571D01*
X110814476Y-81636380D02*
X110814476Y-80636380D01*
X109814476Y-81636380D02*
X110385904Y-81636380D01*
X110100190Y-81636380D02*
X110100190Y-80636380D01*
X110195428Y-80779238D01*
X110290666Y-80874476D01*
X110385904Y-80922095D01*
X77630952Y-79731428D02*
X76869047Y-79731428D01*
X143630952Y-79731428D02*
X142869047Y-79731428D01*
X143250000Y-80112380D02*
X143250000Y-79350476D01*
M02*
