G04 #@! TF.GenerationSoftware,KiCad,Pcbnew,(5.1.0)-1*
G04 #@! TF.CreationDate,2019-04-13T21:09:27-07:00*
G04 #@! TF.ProjectId,PCBv1,50434276-312e-46b6-9963-61645f706362,rev?*
G04 #@! TF.SameCoordinates,Original*
G04 #@! TF.FileFunction,Soldermask,Bot*
G04 #@! TF.FilePolarity,Negative*
%FSLAX46Y46*%
G04 Gerber Fmt 4.6, Leading zero omitted, Abs format (unit mm)*
G04 Created by KiCad (PCBNEW (5.1.0)-1) date 2019-04-13 21:09:27*
%MOMM*%
%LPD*%
G04 APERTURE LIST*
%ADD10C,0.100000*%
G04 APERTURE END LIST*
D10*
G36*
X174548903Y-121893213D02*
G01*
X174771177Y-121937426D01*
X175189932Y-122110880D01*
X175566802Y-122362696D01*
X175887304Y-122683198D01*
X176139120Y-123060068D01*
X176312574Y-123478823D01*
X176401000Y-123923371D01*
X176401000Y-124376629D01*
X176312574Y-124821177D01*
X176139120Y-125239932D01*
X175887304Y-125616802D01*
X175566802Y-125937304D01*
X175189932Y-126189120D01*
X174771177Y-126362574D01*
X174548903Y-126406787D01*
X174326630Y-126451000D01*
X173873370Y-126451000D01*
X173651097Y-126406787D01*
X173428823Y-126362574D01*
X173010068Y-126189120D01*
X172633198Y-125937304D01*
X172312696Y-125616802D01*
X172060880Y-125239932D01*
X171887426Y-124821177D01*
X171799000Y-124376629D01*
X171799000Y-123923371D01*
X171887426Y-123478823D01*
X172060880Y-123060068D01*
X172312696Y-122683198D01*
X172633198Y-122362696D01*
X173010068Y-122110880D01*
X173428823Y-121937426D01*
X173651097Y-121893213D01*
X173873370Y-121849000D01*
X174326630Y-121849000D01*
X174548903Y-121893213D01*
X174548903Y-121893213D01*
G37*
G36*
X93623903Y-121893213D02*
G01*
X93846177Y-121937426D01*
X94264932Y-122110880D01*
X94641802Y-122362696D01*
X94962304Y-122683198D01*
X95214120Y-123060068D01*
X95387574Y-123478823D01*
X95476000Y-123923371D01*
X95476000Y-124376629D01*
X95387574Y-124821177D01*
X95214120Y-125239932D01*
X94962304Y-125616802D01*
X94641802Y-125937304D01*
X94264932Y-126189120D01*
X93846177Y-126362574D01*
X93623903Y-126406787D01*
X93401630Y-126451000D01*
X92948370Y-126451000D01*
X92726097Y-126406787D01*
X92503823Y-126362574D01*
X92085068Y-126189120D01*
X91708198Y-125937304D01*
X91387696Y-125616802D01*
X91135880Y-125239932D01*
X90962426Y-124821177D01*
X90874000Y-124376629D01*
X90874000Y-123923371D01*
X90962426Y-123478823D01*
X91135880Y-123060068D01*
X91387696Y-122683198D01*
X91708198Y-122362696D01*
X92085068Y-122110880D01*
X92503823Y-121937426D01*
X92726097Y-121893213D01*
X92948370Y-121849000D01*
X93401630Y-121849000D01*
X93623903Y-121893213D01*
X93623903Y-121893213D01*
G37*
G36*
X107933142Y-118471242D02*
G01*
X108081101Y-118532529D01*
X108214255Y-118621499D01*
X108327501Y-118734745D01*
X108416471Y-118867899D01*
X108477758Y-119015858D01*
X108509000Y-119172925D01*
X108509000Y-119333075D01*
X108477758Y-119490142D01*
X108416471Y-119638101D01*
X108327501Y-119771255D01*
X108214255Y-119884501D01*
X108081101Y-119973471D01*
X107933142Y-120034758D01*
X107776075Y-120066000D01*
X107615925Y-120066000D01*
X107458858Y-120034758D01*
X107310899Y-119973471D01*
X107177745Y-119884501D01*
X107064499Y-119771255D01*
X106975529Y-119638101D01*
X106914242Y-119490142D01*
X106883000Y-119333075D01*
X106883000Y-119172925D01*
X106914242Y-119015858D01*
X106975529Y-118867899D01*
X107064499Y-118734745D01*
X107177745Y-118621499D01*
X107310899Y-118532529D01*
X107458858Y-118471242D01*
X107615925Y-118440000D01*
X107776075Y-118440000D01*
X107933142Y-118471242D01*
X107933142Y-118471242D01*
G37*
G36*
X93709142Y-118471242D02*
G01*
X93857101Y-118532529D01*
X93990255Y-118621499D01*
X94103501Y-118734745D01*
X94192471Y-118867899D01*
X94253758Y-119015858D01*
X94285000Y-119172925D01*
X94285000Y-119333075D01*
X94253758Y-119490142D01*
X94192471Y-119638101D01*
X94103501Y-119771255D01*
X93990255Y-119884501D01*
X93857101Y-119973471D01*
X93709142Y-120034758D01*
X93552075Y-120066000D01*
X93391925Y-120066000D01*
X93234858Y-120034758D01*
X93086899Y-119973471D01*
X92953745Y-119884501D01*
X92840499Y-119771255D01*
X92751529Y-119638101D01*
X92690242Y-119490142D01*
X92659000Y-119333075D01*
X92659000Y-119172925D01*
X92690242Y-119015858D01*
X92751529Y-118867899D01*
X92840499Y-118734745D01*
X92953745Y-118621499D01*
X93086899Y-118532529D01*
X93234858Y-118471242D01*
X93391925Y-118440000D01*
X93552075Y-118440000D01*
X93709142Y-118471242D01*
X93709142Y-118471242D01*
G37*
G36*
X132867142Y-117148242D02*
G01*
X133015101Y-117209529D01*
X133148255Y-117298499D01*
X133261501Y-117411745D01*
X133350471Y-117544899D01*
X133411758Y-117692858D01*
X133443000Y-117849925D01*
X133443000Y-118010075D01*
X133411758Y-118167142D01*
X133350471Y-118315101D01*
X133261501Y-118448255D01*
X133148255Y-118561501D01*
X133015101Y-118650471D01*
X132867142Y-118711758D01*
X132710075Y-118743000D01*
X132549925Y-118743000D01*
X132392858Y-118711758D01*
X132244899Y-118650471D01*
X132111745Y-118561501D01*
X131998499Y-118448255D01*
X131909529Y-118315101D01*
X131848242Y-118167142D01*
X131817000Y-118010075D01*
X131817000Y-117849925D01*
X131848242Y-117692858D01*
X131909529Y-117544899D01*
X131998499Y-117411745D01*
X132111745Y-117298499D01*
X132244899Y-117209529D01*
X132392858Y-117148242D01*
X132549925Y-117117000D01*
X132710075Y-117117000D01*
X132867142Y-117148242D01*
X132867142Y-117148242D01*
G37*
G36*
X150647142Y-117148242D02*
G01*
X150795101Y-117209529D01*
X150928255Y-117298499D01*
X151041501Y-117411745D01*
X151130471Y-117544899D01*
X151191758Y-117692858D01*
X151223000Y-117849925D01*
X151223000Y-118010075D01*
X151191758Y-118167142D01*
X151130471Y-118315101D01*
X151041501Y-118448255D01*
X150928255Y-118561501D01*
X150795101Y-118650471D01*
X150647142Y-118711758D01*
X150490075Y-118743000D01*
X150329925Y-118743000D01*
X150172858Y-118711758D01*
X150024899Y-118650471D01*
X149891745Y-118561501D01*
X149778499Y-118448255D01*
X149689529Y-118315101D01*
X149628242Y-118167142D01*
X149597000Y-118010075D01*
X149597000Y-117849925D01*
X149628242Y-117692858D01*
X149689529Y-117544899D01*
X149778499Y-117411745D01*
X149891745Y-117298499D01*
X150024899Y-117209529D01*
X150172858Y-117148242D01*
X150329925Y-117117000D01*
X150490075Y-117117000D01*
X150647142Y-117148242D01*
X150647142Y-117148242D01*
G37*
G36*
X148107142Y-117148242D02*
G01*
X148255101Y-117209529D01*
X148388255Y-117298499D01*
X148501501Y-117411745D01*
X148590471Y-117544899D01*
X148651758Y-117692858D01*
X148683000Y-117849925D01*
X148683000Y-118010075D01*
X148651758Y-118167142D01*
X148590471Y-118315101D01*
X148501501Y-118448255D01*
X148388255Y-118561501D01*
X148255101Y-118650471D01*
X148107142Y-118711758D01*
X147950075Y-118743000D01*
X147789925Y-118743000D01*
X147632858Y-118711758D01*
X147484899Y-118650471D01*
X147351745Y-118561501D01*
X147238499Y-118448255D01*
X147149529Y-118315101D01*
X147088242Y-118167142D01*
X147057000Y-118010075D01*
X147057000Y-117849925D01*
X147088242Y-117692858D01*
X147149529Y-117544899D01*
X147238499Y-117411745D01*
X147351745Y-117298499D01*
X147484899Y-117209529D01*
X147632858Y-117148242D01*
X147789925Y-117117000D01*
X147950075Y-117117000D01*
X148107142Y-117148242D01*
X148107142Y-117148242D01*
G37*
G36*
X145567142Y-117148242D02*
G01*
X145715101Y-117209529D01*
X145848255Y-117298499D01*
X145961501Y-117411745D01*
X146050471Y-117544899D01*
X146111758Y-117692858D01*
X146143000Y-117849925D01*
X146143000Y-118010075D01*
X146111758Y-118167142D01*
X146050471Y-118315101D01*
X145961501Y-118448255D01*
X145848255Y-118561501D01*
X145715101Y-118650471D01*
X145567142Y-118711758D01*
X145410075Y-118743000D01*
X145249925Y-118743000D01*
X145092858Y-118711758D01*
X144944899Y-118650471D01*
X144811745Y-118561501D01*
X144698499Y-118448255D01*
X144609529Y-118315101D01*
X144548242Y-118167142D01*
X144517000Y-118010075D01*
X144517000Y-117849925D01*
X144548242Y-117692858D01*
X144609529Y-117544899D01*
X144698499Y-117411745D01*
X144811745Y-117298499D01*
X144944899Y-117209529D01*
X145092858Y-117148242D01*
X145249925Y-117117000D01*
X145410075Y-117117000D01*
X145567142Y-117148242D01*
X145567142Y-117148242D01*
G37*
G36*
X143027142Y-117148242D02*
G01*
X143175101Y-117209529D01*
X143308255Y-117298499D01*
X143421501Y-117411745D01*
X143510471Y-117544899D01*
X143571758Y-117692858D01*
X143603000Y-117849925D01*
X143603000Y-118010075D01*
X143571758Y-118167142D01*
X143510471Y-118315101D01*
X143421501Y-118448255D01*
X143308255Y-118561501D01*
X143175101Y-118650471D01*
X143027142Y-118711758D01*
X142870075Y-118743000D01*
X142709925Y-118743000D01*
X142552858Y-118711758D01*
X142404899Y-118650471D01*
X142271745Y-118561501D01*
X142158499Y-118448255D01*
X142069529Y-118315101D01*
X142008242Y-118167142D01*
X141977000Y-118010075D01*
X141977000Y-117849925D01*
X142008242Y-117692858D01*
X142069529Y-117544899D01*
X142158499Y-117411745D01*
X142271745Y-117298499D01*
X142404899Y-117209529D01*
X142552858Y-117148242D01*
X142709925Y-117117000D01*
X142870075Y-117117000D01*
X143027142Y-117148242D01*
X143027142Y-117148242D01*
G37*
G36*
X140487142Y-117148242D02*
G01*
X140635101Y-117209529D01*
X140768255Y-117298499D01*
X140881501Y-117411745D01*
X140970471Y-117544899D01*
X141031758Y-117692858D01*
X141063000Y-117849925D01*
X141063000Y-118010075D01*
X141031758Y-118167142D01*
X140970471Y-118315101D01*
X140881501Y-118448255D01*
X140768255Y-118561501D01*
X140635101Y-118650471D01*
X140487142Y-118711758D01*
X140330075Y-118743000D01*
X140169925Y-118743000D01*
X140012858Y-118711758D01*
X139864899Y-118650471D01*
X139731745Y-118561501D01*
X139618499Y-118448255D01*
X139529529Y-118315101D01*
X139468242Y-118167142D01*
X139437000Y-118010075D01*
X139437000Y-117849925D01*
X139468242Y-117692858D01*
X139529529Y-117544899D01*
X139618499Y-117411745D01*
X139731745Y-117298499D01*
X139864899Y-117209529D01*
X140012858Y-117148242D01*
X140169925Y-117117000D01*
X140330075Y-117117000D01*
X140487142Y-117148242D01*
X140487142Y-117148242D01*
G37*
G36*
X137947142Y-117148242D02*
G01*
X138095101Y-117209529D01*
X138228255Y-117298499D01*
X138341501Y-117411745D01*
X138430471Y-117544899D01*
X138491758Y-117692858D01*
X138523000Y-117849925D01*
X138523000Y-118010075D01*
X138491758Y-118167142D01*
X138430471Y-118315101D01*
X138341501Y-118448255D01*
X138228255Y-118561501D01*
X138095101Y-118650471D01*
X137947142Y-118711758D01*
X137790075Y-118743000D01*
X137629925Y-118743000D01*
X137472858Y-118711758D01*
X137324899Y-118650471D01*
X137191745Y-118561501D01*
X137078499Y-118448255D01*
X136989529Y-118315101D01*
X136928242Y-118167142D01*
X136897000Y-118010075D01*
X136897000Y-117849925D01*
X136928242Y-117692858D01*
X136989529Y-117544899D01*
X137078499Y-117411745D01*
X137191745Y-117298499D01*
X137324899Y-117209529D01*
X137472858Y-117148242D01*
X137629925Y-117117000D01*
X137790075Y-117117000D01*
X137947142Y-117148242D01*
X137947142Y-117148242D01*
G37*
G36*
X135407142Y-117148242D02*
G01*
X135555101Y-117209529D01*
X135688255Y-117298499D01*
X135801501Y-117411745D01*
X135890471Y-117544899D01*
X135951758Y-117692858D01*
X135983000Y-117849925D01*
X135983000Y-118010075D01*
X135951758Y-118167142D01*
X135890471Y-118315101D01*
X135801501Y-118448255D01*
X135688255Y-118561501D01*
X135555101Y-118650471D01*
X135407142Y-118711758D01*
X135250075Y-118743000D01*
X135089925Y-118743000D01*
X134932858Y-118711758D01*
X134784899Y-118650471D01*
X134651745Y-118561501D01*
X134538499Y-118448255D01*
X134449529Y-118315101D01*
X134388242Y-118167142D01*
X134357000Y-118010075D01*
X134357000Y-117849925D01*
X134388242Y-117692858D01*
X134449529Y-117544899D01*
X134538499Y-117411745D01*
X134651745Y-117298499D01*
X134784899Y-117209529D01*
X134932858Y-117148242D01*
X135089925Y-117117000D01*
X135250075Y-117117000D01*
X135407142Y-117148242D01*
X135407142Y-117148242D01*
G37*
G36*
X130327142Y-117148242D02*
G01*
X130475101Y-117209529D01*
X130608255Y-117298499D01*
X130721501Y-117411745D01*
X130810471Y-117544899D01*
X130871758Y-117692858D01*
X130903000Y-117849925D01*
X130903000Y-118010075D01*
X130871758Y-118167142D01*
X130810471Y-118315101D01*
X130721501Y-118448255D01*
X130608255Y-118561501D01*
X130475101Y-118650471D01*
X130327142Y-118711758D01*
X130170075Y-118743000D01*
X130009925Y-118743000D01*
X129852858Y-118711758D01*
X129704899Y-118650471D01*
X129571745Y-118561501D01*
X129458499Y-118448255D01*
X129369529Y-118315101D01*
X129308242Y-118167142D01*
X129277000Y-118010075D01*
X129277000Y-117849925D01*
X129308242Y-117692858D01*
X129369529Y-117544899D01*
X129458499Y-117411745D01*
X129571745Y-117298499D01*
X129704899Y-117209529D01*
X129852858Y-117148242D01*
X130009925Y-117117000D01*
X130170075Y-117117000D01*
X130327142Y-117148242D01*
X130327142Y-117148242D01*
G37*
G36*
X153187142Y-117148242D02*
G01*
X153335101Y-117209529D01*
X153468255Y-117298499D01*
X153581501Y-117411745D01*
X153670471Y-117544899D01*
X153731758Y-117692858D01*
X153763000Y-117849925D01*
X153763000Y-118010075D01*
X153731758Y-118167142D01*
X153670471Y-118315101D01*
X153581501Y-118448255D01*
X153468255Y-118561501D01*
X153335101Y-118650471D01*
X153187142Y-118711758D01*
X153030075Y-118743000D01*
X152869925Y-118743000D01*
X152712858Y-118711758D01*
X152564899Y-118650471D01*
X152431745Y-118561501D01*
X152318499Y-118448255D01*
X152229529Y-118315101D01*
X152168242Y-118167142D01*
X152137000Y-118010075D01*
X152137000Y-117849925D01*
X152168242Y-117692858D01*
X152229529Y-117544899D01*
X152318499Y-117411745D01*
X152431745Y-117298499D01*
X152564899Y-117209529D01*
X152712858Y-117148242D01*
X152869925Y-117117000D01*
X153030075Y-117117000D01*
X153187142Y-117148242D01*
X153187142Y-117148242D01*
G37*
G36*
X125247142Y-117148242D02*
G01*
X125395101Y-117209529D01*
X125528255Y-117298499D01*
X125641501Y-117411745D01*
X125730471Y-117544899D01*
X125791758Y-117692858D01*
X125823000Y-117849925D01*
X125823000Y-118010075D01*
X125791758Y-118167142D01*
X125730471Y-118315101D01*
X125641501Y-118448255D01*
X125528255Y-118561501D01*
X125395101Y-118650471D01*
X125247142Y-118711758D01*
X125090075Y-118743000D01*
X124929925Y-118743000D01*
X124772858Y-118711758D01*
X124624899Y-118650471D01*
X124491745Y-118561501D01*
X124378499Y-118448255D01*
X124289529Y-118315101D01*
X124228242Y-118167142D01*
X124197000Y-118010075D01*
X124197000Y-117849925D01*
X124228242Y-117692858D01*
X124289529Y-117544899D01*
X124378499Y-117411745D01*
X124491745Y-117298499D01*
X124624899Y-117209529D01*
X124772858Y-117148242D01*
X124929925Y-117117000D01*
X125090075Y-117117000D01*
X125247142Y-117148242D01*
X125247142Y-117148242D01*
G37*
G36*
X122707142Y-117148242D02*
G01*
X122855101Y-117209529D01*
X122988255Y-117298499D01*
X123101501Y-117411745D01*
X123190471Y-117544899D01*
X123251758Y-117692858D01*
X123283000Y-117849925D01*
X123283000Y-118010075D01*
X123251758Y-118167142D01*
X123190471Y-118315101D01*
X123101501Y-118448255D01*
X122988255Y-118561501D01*
X122855101Y-118650471D01*
X122707142Y-118711758D01*
X122550075Y-118743000D01*
X122389925Y-118743000D01*
X122232858Y-118711758D01*
X122084899Y-118650471D01*
X121951745Y-118561501D01*
X121838499Y-118448255D01*
X121749529Y-118315101D01*
X121688242Y-118167142D01*
X121657000Y-118010075D01*
X121657000Y-117849925D01*
X121688242Y-117692858D01*
X121749529Y-117544899D01*
X121838499Y-117411745D01*
X121951745Y-117298499D01*
X122084899Y-117209529D01*
X122232858Y-117148242D01*
X122389925Y-117117000D01*
X122550075Y-117117000D01*
X122707142Y-117148242D01*
X122707142Y-117148242D01*
G37*
G36*
X120167142Y-117148242D02*
G01*
X120315101Y-117209529D01*
X120448255Y-117298499D01*
X120561501Y-117411745D01*
X120650471Y-117544899D01*
X120711758Y-117692858D01*
X120743000Y-117849925D01*
X120743000Y-118010075D01*
X120711758Y-118167142D01*
X120650471Y-118315101D01*
X120561501Y-118448255D01*
X120448255Y-118561501D01*
X120315101Y-118650471D01*
X120167142Y-118711758D01*
X120010075Y-118743000D01*
X119849925Y-118743000D01*
X119692858Y-118711758D01*
X119544899Y-118650471D01*
X119411745Y-118561501D01*
X119298499Y-118448255D01*
X119209529Y-118315101D01*
X119148242Y-118167142D01*
X119117000Y-118010075D01*
X119117000Y-117849925D01*
X119148242Y-117692858D01*
X119209529Y-117544899D01*
X119298499Y-117411745D01*
X119411745Y-117298499D01*
X119544899Y-117209529D01*
X119692858Y-117148242D01*
X119849925Y-117117000D01*
X120010075Y-117117000D01*
X120167142Y-117148242D01*
X120167142Y-117148242D01*
G37*
G36*
X117627142Y-117148242D02*
G01*
X117775101Y-117209529D01*
X117908255Y-117298499D01*
X118021501Y-117411745D01*
X118110471Y-117544899D01*
X118171758Y-117692858D01*
X118203000Y-117849925D01*
X118203000Y-118010075D01*
X118171758Y-118167142D01*
X118110471Y-118315101D01*
X118021501Y-118448255D01*
X117908255Y-118561501D01*
X117775101Y-118650471D01*
X117627142Y-118711758D01*
X117470075Y-118743000D01*
X117309925Y-118743000D01*
X117152858Y-118711758D01*
X117004899Y-118650471D01*
X116871745Y-118561501D01*
X116758499Y-118448255D01*
X116669529Y-118315101D01*
X116608242Y-118167142D01*
X116577000Y-118010075D01*
X116577000Y-117849925D01*
X116608242Y-117692858D01*
X116669529Y-117544899D01*
X116758499Y-117411745D01*
X116871745Y-117298499D01*
X117004899Y-117209529D01*
X117152858Y-117148242D01*
X117309925Y-117117000D01*
X117470075Y-117117000D01*
X117627142Y-117148242D01*
X117627142Y-117148242D01*
G37*
G36*
X115087142Y-117148242D02*
G01*
X115235101Y-117209529D01*
X115368255Y-117298499D01*
X115481501Y-117411745D01*
X115570471Y-117544899D01*
X115631758Y-117692858D01*
X115663000Y-117849925D01*
X115663000Y-118010075D01*
X115631758Y-118167142D01*
X115570471Y-118315101D01*
X115481501Y-118448255D01*
X115368255Y-118561501D01*
X115235101Y-118650471D01*
X115087142Y-118711758D01*
X114930075Y-118743000D01*
X114769925Y-118743000D01*
X114612858Y-118711758D01*
X114464899Y-118650471D01*
X114331745Y-118561501D01*
X114218499Y-118448255D01*
X114129529Y-118315101D01*
X114068242Y-118167142D01*
X114037000Y-118010075D01*
X114037000Y-117849925D01*
X114068242Y-117692858D01*
X114129529Y-117544899D01*
X114218499Y-117411745D01*
X114331745Y-117298499D01*
X114464899Y-117209529D01*
X114612858Y-117148242D01*
X114769925Y-117117000D01*
X114930075Y-117117000D01*
X115087142Y-117148242D01*
X115087142Y-117148242D01*
G37*
G36*
X155727142Y-117148242D02*
G01*
X155875101Y-117209529D01*
X156008255Y-117298499D01*
X156121501Y-117411745D01*
X156210471Y-117544899D01*
X156271758Y-117692858D01*
X156303000Y-117849925D01*
X156303000Y-118010075D01*
X156271758Y-118167142D01*
X156210471Y-118315101D01*
X156121501Y-118448255D01*
X156008255Y-118561501D01*
X155875101Y-118650471D01*
X155727142Y-118711758D01*
X155570075Y-118743000D01*
X155409925Y-118743000D01*
X155252858Y-118711758D01*
X155104899Y-118650471D01*
X154971745Y-118561501D01*
X154858499Y-118448255D01*
X154769529Y-118315101D01*
X154708242Y-118167142D01*
X154677000Y-118010075D01*
X154677000Y-117849925D01*
X154708242Y-117692858D01*
X154769529Y-117544899D01*
X154858499Y-117411745D01*
X154971745Y-117298499D01*
X155104899Y-117209529D01*
X155252858Y-117148242D01*
X155409925Y-117117000D01*
X155570075Y-117117000D01*
X155727142Y-117148242D01*
X155727142Y-117148242D01*
G37*
G36*
X112547142Y-117148242D02*
G01*
X112695101Y-117209529D01*
X112828255Y-117298499D01*
X112941501Y-117411745D01*
X113030471Y-117544899D01*
X113091758Y-117692858D01*
X113123000Y-117849925D01*
X113123000Y-118010075D01*
X113091758Y-118167142D01*
X113030471Y-118315101D01*
X112941501Y-118448255D01*
X112828255Y-118561501D01*
X112695101Y-118650471D01*
X112547142Y-118711758D01*
X112390075Y-118743000D01*
X112229925Y-118743000D01*
X112072858Y-118711758D01*
X111924899Y-118650471D01*
X111791745Y-118561501D01*
X111678499Y-118448255D01*
X111589529Y-118315101D01*
X111528242Y-118167142D01*
X111497000Y-118010075D01*
X111497000Y-117849925D01*
X111528242Y-117692858D01*
X111589529Y-117544899D01*
X111678499Y-117411745D01*
X111791745Y-117298499D01*
X111924899Y-117209529D01*
X112072858Y-117148242D01*
X112229925Y-117117000D01*
X112390075Y-117117000D01*
X112547142Y-117148242D01*
X112547142Y-117148242D01*
G37*
G36*
X158267142Y-117148242D02*
G01*
X158415101Y-117209529D01*
X158548255Y-117298499D01*
X158661501Y-117411745D01*
X158750471Y-117544899D01*
X158811758Y-117692858D01*
X158843000Y-117849925D01*
X158843000Y-118010075D01*
X158811758Y-118167142D01*
X158750471Y-118315101D01*
X158661501Y-118448255D01*
X158548255Y-118561501D01*
X158415101Y-118650471D01*
X158267142Y-118711758D01*
X158110075Y-118743000D01*
X157949925Y-118743000D01*
X157792858Y-118711758D01*
X157644899Y-118650471D01*
X157511745Y-118561501D01*
X157398499Y-118448255D01*
X157309529Y-118315101D01*
X157248242Y-118167142D01*
X157217000Y-118010075D01*
X157217000Y-117849925D01*
X157248242Y-117692858D01*
X157309529Y-117544899D01*
X157398499Y-117411745D01*
X157511745Y-117298499D01*
X157644899Y-117209529D01*
X157792858Y-117148242D01*
X157949925Y-117117000D01*
X158110075Y-117117000D01*
X158267142Y-117148242D01*
X158267142Y-117148242D01*
G37*
G36*
X127787142Y-117148242D02*
G01*
X127935101Y-117209529D01*
X128068255Y-117298499D01*
X128181501Y-117411745D01*
X128270471Y-117544899D01*
X128331758Y-117692858D01*
X128363000Y-117849925D01*
X128363000Y-118010075D01*
X128331758Y-118167142D01*
X128270471Y-118315101D01*
X128181501Y-118448255D01*
X128068255Y-118561501D01*
X127935101Y-118650471D01*
X127787142Y-118711758D01*
X127630075Y-118743000D01*
X127469925Y-118743000D01*
X127312858Y-118711758D01*
X127164899Y-118650471D01*
X127031745Y-118561501D01*
X126918499Y-118448255D01*
X126829529Y-118315101D01*
X126768242Y-118167142D01*
X126737000Y-118010075D01*
X126737000Y-117849925D01*
X126768242Y-117692858D01*
X126829529Y-117544899D01*
X126918499Y-117411745D01*
X127031745Y-117298499D01*
X127164899Y-117209529D01*
X127312858Y-117148242D01*
X127469925Y-117117000D01*
X127630075Y-117117000D01*
X127787142Y-117148242D01*
X127787142Y-117148242D01*
G37*
G36*
X162767142Y-112148242D02*
G01*
X162915101Y-112209529D01*
X163048255Y-112298499D01*
X163161501Y-112411745D01*
X163250471Y-112544899D01*
X163311758Y-112692858D01*
X163343000Y-112849925D01*
X163343000Y-113010075D01*
X163311758Y-113167142D01*
X163250471Y-113315101D01*
X163161501Y-113448255D01*
X163048255Y-113561501D01*
X162915101Y-113650471D01*
X162767142Y-113711758D01*
X162610075Y-113743000D01*
X162449925Y-113743000D01*
X162292858Y-113711758D01*
X162144899Y-113650471D01*
X162011745Y-113561501D01*
X161898499Y-113448255D01*
X161809529Y-113315101D01*
X161748242Y-113167142D01*
X161717000Y-113010075D01*
X161717000Y-112849925D01*
X161748242Y-112692858D01*
X161809529Y-112544899D01*
X161898499Y-112411745D01*
X162011745Y-112298499D01*
X162144899Y-112209529D01*
X162292858Y-112148242D01*
X162449925Y-112117000D01*
X162610075Y-112117000D01*
X162767142Y-112148242D01*
X162767142Y-112148242D01*
G37*
G36*
X162767142Y-109608242D02*
G01*
X162915101Y-109669529D01*
X163048255Y-109758499D01*
X163161501Y-109871745D01*
X163250471Y-110004899D01*
X163311758Y-110152858D01*
X163343000Y-110309925D01*
X163343000Y-110470075D01*
X163311758Y-110627142D01*
X163250471Y-110775101D01*
X163161501Y-110908255D01*
X163048255Y-111021501D01*
X162915101Y-111110471D01*
X162767142Y-111171758D01*
X162610075Y-111203000D01*
X162449925Y-111203000D01*
X162292858Y-111171758D01*
X162144899Y-111110471D01*
X162011745Y-111021501D01*
X161898499Y-110908255D01*
X161809529Y-110775101D01*
X161748242Y-110627142D01*
X161717000Y-110470075D01*
X161717000Y-110309925D01*
X161748242Y-110152858D01*
X161809529Y-110004899D01*
X161898499Y-109871745D01*
X162011745Y-109758499D01*
X162144899Y-109669529D01*
X162292858Y-109608242D01*
X162449925Y-109577000D01*
X162610075Y-109577000D01*
X162767142Y-109608242D01*
X162767142Y-109608242D01*
G37*
G36*
X162767142Y-107068242D02*
G01*
X162915101Y-107129529D01*
X163048255Y-107218499D01*
X163161501Y-107331745D01*
X163250471Y-107464899D01*
X163311758Y-107612858D01*
X163343000Y-107769925D01*
X163343000Y-107930075D01*
X163311758Y-108087142D01*
X163250471Y-108235101D01*
X163161501Y-108368255D01*
X163048255Y-108481501D01*
X162915101Y-108570471D01*
X162767142Y-108631758D01*
X162610075Y-108663000D01*
X162449925Y-108663000D01*
X162292858Y-108631758D01*
X162144899Y-108570471D01*
X162011745Y-108481501D01*
X161898499Y-108368255D01*
X161809529Y-108235101D01*
X161748242Y-108087142D01*
X161717000Y-107930075D01*
X161717000Y-107769925D01*
X161748242Y-107612858D01*
X161809529Y-107464899D01*
X161898499Y-107331745D01*
X162011745Y-107218499D01*
X162144899Y-107129529D01*
X162292858Y-107068242D01*
X162449925Y-107037000D01*
X162610075Y-107037000D01*
X162767142Y-107068242D01*
X162767142Y-107068242D01*
G37*
G36*
X162767142Y-104528242D02*
G01*
X162915101Y-104589529D01*
X163048255Y-104678499D01*
X163161501Y-104791745D01*
X163250471Y-104924899D01*
X163311758Y-105072858D01*
X163343000Y-105229925D01*
X163343000Y-105390075D01*
X163311758Y-105547142D01*
X163250471Y-105695101D01*
X163161501Y-105828255D01*
X163048255Y-105941501D01*
X162915101Y-106030471D01*
X162767142Y-106091758D01*
X162610075Y-106123000D01*
X162449925Y-106123000D01*
X162292858Y-106091758D01*
X162144899Y-106030471D01*
X162011745Y-105941501D01*
X161898499Y-105828255D01*
X161809529Y-105695101D01*
X161748242Y-105547142D01*
X161717000Y-105390075D01*
X161717000Y-105229925D01*
X161748242Y-105072858D01*
X161809529Y-104924899D01*
X161898499Y-104791745D01*
X162011745Y-104678499D01*
X162144899Y-104589529D01*
X162292858Y-104528242D01*
X162449925Y-104497000D01*
X162610075Y-104497000D01*
X162767142Y-104528242D01*
X162767142Y-104528242D01*
G37*
G36*
X162767142Y-101988242D02*
G01*
X162915101Y-102049529D01*
X163048255Y-102138499D01*
X163161501Y-102251745D01*
X163250471Y-102384899D01*
X163311758Y-102532858D01*
X163343000Y-102689925D01*
X163343000Y-102850075D01*
X163311758Y-103007142D01*
X163250471Y-103155101D01*
X163161501Y-103288255D01*
X163048255Y-103401501D01*
X162915101Y-103490471D01*
X162767142Y-103551758D01*
X162610075Y-103583000D01*
X162449925Y-103583000D01*
X162292858Y-103551758D01*
X162144899Y-103490471D01*
X162011745Y-103401501D01*
X161898499Y-103288255D01*
X161809529Y-103155101D01*
X161748242Y-103007142D01*
X161717000Y-102850075D01*
X161717000Y-102689925D01*
X161748242Y-102532858D01*
X161809529Y-102384899D01*
X161898499Y-102251745D01*
X162011745Y-102138499D01*
X162144899Y-102049529D01*
X162292858Y-101988242D01*
X162449925Y-101957000D01*
X162610075Y-101957000D01*
X162767142Y-101988242D01*
X162767142Y-101988242D01*
G37*
G36*
X162767142Y-99448242D02*
G01*
X162915101Y-99509529D01*
X163048255Y-99598499D01*
X163161501Y-99711745D01*
X163250471Y-99844899D01*
X163311758Y-99992858D01*
X163343000Y-100149925D01*
X163343000Y-100310075D01*
X163311758Y-100467142D01*
X163250471Y-100615101D01*
X163161501Y-100748255D01*
X163048255Y-100861501D01*
X162915101Y-100950471D01*
X162767142Y-101011758D01*
X162610075Y-101043000D01*
X162449925Y-101043000D01*
X162292858Y-101011758D01*
X162144899Y-100950471D01*
X162011745Y-100861501D01*
X161898499Y-100748255D01*
X161809529Y-100615101D01*
X161748242Y-100467142D01*
X161717000Y-100310075D01*
X161717000Y-100149925D01*
X161748242Y-99992858D01*
X161809529Y-99844899D01*
X161898499Y-99711745D01*
X162011745Y-99598499D01*
X162144899Y-99509529D01*
X162292858Y-99448242D01*
X162449925Y-99417000D01*
X162610075Y-99417000D01*
X162767142Y-99448242D01*
X162767142Y-99448242D01*
G37*
G36*
X162767142Y-96908242D02*
G01*
X162915101Y-96969529D01*
X163048255Y-97058499D01*
X163161501Y-97171745D01*
X163250471Y-97304899D01*
X163311758Y-97452858D01*
X163343000Y-97609925D01*
X163343000Y-97770075D01*
X163311758Y-97927142D01*
X163250471Y-98075101D01*
X163161501Y-98208255D01*
X163048255Y-98321501D01*
X162915101Y-98410471D01*
X162767142Y-98471758D01*
X162610075Y-98503000D01*
X162449925Y-98503000D01*
X162292858Y-98471758D01*
X162144899Y-98410471D01*
X162011745Y-98321501D01*
X161898499Y-98208255D01*
X161809529Y-98075101D01*
X161748242Y-97927142D01*
X161717000Y-97770075D01*
X161717000Y-97609925D01*
X161748242Y-97452858D01*
X161809529Y-97304899D01*
X161898499Y-97171745D01*
X162011745Y-97058499D01*
X162144899Y-96969529D01*
X162292858Y-96908242D01*
X162449925Y-96877000D01*
X162610075Y-96877000D01*
X162767142Y-96908242D01*
X162767142Y-96908242D01*
G37*
G36*
X107933142Y-95611242D02*
G01*
X108081101Y-95672529D01*
X108214255Y-95761499D01*
X108327501Y-95874745D01*
X108416471Y-96007899D01*
X108477758Y-96155858D01*
X108509000Y-96312925D01*
X108509000Y-96473075D01*
X108477758Y-96630142D01*
X108416471Y-96778101D01*
X108327501Y-96911255D01*
X108214255Y-97024501D01*
X108081101Y-97113471D01*
X107933142Y-97174758D01*
X107776075Y-97206000D01*
X107615925Y-97206000D01*
X107458858Y-97174758D01*
X107310899Y-97113471D01*
X107177745Y-97024501D01*
X107064499Y-96911255D01*
X106975529Y-96778101D01*
X106914242Y-96630142D01*
X106883000Y-96473075D01*
X106883000Y-96312925D01*
X106914242Y-96155858D01*
X106975529Y-96007899D01*
X107064499Y-95874745D01*
X107177745Y-95761499D01*
X107310899Y-95672529D01*
X107458858Y-95611242D01*
X107615925Y-95580000D01*
X107776075Y-95580000D01*
X107933142Y-95611242D01*
X107933142Y-95611242D01*
G37*
G36*
X93709142Y-95611242D02*
G01*
X93857101Y-95672529D01*
X93990255Y-95761499D01*
X94103501Y-95874745D01*
X94192471Y-96007899D01*
X94253758Y-96155858D01*
X94285000Y-96312925D01*
X94285000Y-96473075D01*
X94253758Y-96630142D01*
X94192471Y-96778101D01*
X94103501Y-96911255D01*
X93990255Y-97024501D01*
X93857101Y-97113471D01*
X93709142Y-97174758D01*
X93552075Y-97206000D01*
X93391925Y-97206000D01*
X93234858Y-97174758D01*
X93086899Y-97113471D01*
X92953745Y-97024501D01*
X92840499Y-96911255D01*
X92751529Y-96778101D01*
X92690242Y-96630142D01*
X92659000Y-96473075D01*
X92659000Y-96312925D01*
X92690242Y-96155858D01*
X92751529Y-96007899D01*
X92840499Y-95874745D01*
X92953745Y-95761499D01*
X93086899Y-95672529D01*
X93234858Y-95611242D01*
X93391925Y-95580000D01*
X93552075Y-95580000D01*
X93709142Y-95611242D01*
X93709142Y-95611242D01*
G37*
G36*
X96757142Y-95611242D02*
G01*
X96905101Y-95672529D01*
X97038255Y-95761499D01*
X97151501Y-95874745D01*
X97240471Y-96007899D01*
X97301758Y-96155858D01*
X97333000Y-96312925D01*
X97333000Y-96473075D01*
X97301758Y-96630142D01*
X97240471Y-96778101D01*
X97151501Y-96911255D01*
X97038255Y-97024501D01*
X96905101Y-97113471D01*
X96757142Y-97174758D01*
X96600075Y-97206000D01*
X96439925Y-97206000D01*
X96282858Y-97174758D01*
X96134899Y-97113471D01*
X96001745Y-97024501D01*
X95888499Y-96911255D01*
X95799529Y-96778101D01*
X95738242Y-96630142D01*
X95707000Y-96473075D01*
X95707000Y-96312925D01*
X95738242Y-96155858D01*
X95799529Y-96007899D01*
X95888499Y-95874745D01*
X96001745Y-95761499D01*
X96134899Y-95672529D01*
X96282858Y-95611242D01*
X96439925Y-95580000D01*
X96600075Y-95580000D01*
X96757142Y-95611242D01*
X96757142Y-95611242D01*
G37*
G36*
X104885142Y-95611242D02*
G01*
X105033101Y-95672529D01*
X105166255Y-95761499D01*
X105279501Y-95874745D01*
X105368471Y-96007899D01*
X105429758Y-96155858D01*
X105461000Y-96312925D01*
X105461000Y-96473075D01*
X105429758Y-96630142D01*
X105368471Y-96778101D01*
X105279501Y-96911255D01*
X105166255Y-97024501D01*
X105033101Y-97113471D01*
X104885142Y-97174758D01*
X104728075Y-97206000D01*
X104567925Y-97206000D01*
X104410858Y-97174758D01*
X104262899Y-97113471D01*
X104129745Y-97024501D01*
X104016499Y-96911255D01*
X103927529Y-96778101D01*
X103866242Y-96630142D01*
X103835000Y-96473075D01*
X103835000Y-96312925D01*
X103866242Y-96155858D01*
X103927529Y-96007899D01*
X104016499Y-95874745D01*
X104129745Y-95761499D01*
X104262899Y-95672529D01*
X104410858Y-95611242D01*
X104567925Y-95580000D01*
X104728075Y-95580000D01*
X104885142Y-95611242D01*
X104885142Y-95611242D01*
G37*
G36*
X162767142Y-94368242D02*
G01*
X162915101Y-94429529D01*
X163048255Y-94518499D01*
X163161501Y-94631745D01*
X163250471Y-94764899D01*
X163311758Y-94912858D01*
X163343000Y-95069925D01*
X163343000Y-95230075D01*
X163311758Y-95387142D01*
X163250471Y-95535101D01*
X163161501Y-95668255D01*
X163048255Y-95781501D01*
X162915101Y-95870471D01*
X162767142Y-95931758D01*
X162610075Y-95963000D01*
X162449925Y-95963000D01*
X162292858Y-95931758D01*
X162144899Y-95870471D01*
X162011745Y-95781501D01*
X161898499Y-95668255D01*
X161809529Y-95535101D01*
X161748242Y-95387142D01*
X161717000Y-95230075D01*
X161717000Y-95069925D01*
X161748242Y-94912858D01*
X161809529Y-94764899D01*
X161898499Y-94631745D01*
X162011745Y-94518499D01*
X162144899Y-94429529D01*
X162292858Y-94368242D01*
X162449925Y-94337000D01*
X162610075Y-94337000D01*
X162767142Y-94368242D01*
X162767142Y-94368242D01*
G37*
G36*
X120167142Y-94288242D02*
G01*
X120315101Y-94349529D01*
X120448255Y-94438499D01*
X120561501Y-94551745D01*
X120650471Y-94684899D01*
X120711758Y-94832858D01*
X120743000Y-94989925D01*
X120743000Y-95150075D01*
X120711758Y-95307142D01*
X120650471Y-95455101D01*
X120561501Y-95588255D01*
X120448255Y-95701501D01*
X120315101Y-95790471D01*
X120167142Y-95851758D01*
X120010075Y-95883000D01*
X119849925Y-95883000D01*
X119692858Y-95851758D01*
X119544899Y-95790471D01*
X119411745Y-95701501D01*
X119298499Y-95588255D01*
X119209529Y-95455101D01*
X119148242Y-95307142D01*
X119117000Y-95150075D01*
X119117000Y-94989925D01*
X119148242Y-94832858D01*
X119209529Y-94684899D01*
X119298499Y-94551745D01*
X119411745Y-94438499D01*
X119544899Y-94349529D01*
X119692858Y-94288242D01*
X119849925Y-94257000D01*
X120010075Y-94257000D01*
X120167142Y-94288242D01*
X120167142Y-94288242D01*
G37*
G36*
X143027142Y-94288242D02*
G01*
X143175101Y-94349529D01*
X143308255Y-94438499D01*
X143421501Y-94551745D01*
X143510471Y-94684899D01*
X143571758Y-94832858D01*
X143603000Y-94989925D01*
X143603000Y-95150075D01*
X143571758Y-95307142D01*
X143510471Y-95455101D01*
X143421501Y-95588255D01*
X143308255Y-95701501D01*
X143175101Y-95790471D01*
X143027142Y-95851758D01*
X142870075Y-95883000D01*
X142709925Y-95883000D01*
X142552858Y-95851758D01*
X142404899Y-95790471D01*
X142271745Y-95701501D01*
X142158499Y-95588255D01*
X142069529Y-95455101D01*
X142008242Y-95307142D01*
X141977000Y-95150075D01*
X141977000Y-94989925D01*
X142008242Y-94832858D01*
X142069529Y-94684899D01*
X142158499Y-94551745D01*
X142271745Y-94438499D01*
X142404899Y-94349529D01*
X142552858Y-94288242D01*
X142709925Y-94257000D01*
X142870075Y-94257000D01*
X143027142Y-94288242D01*
X143027142Y-94288242D01*
G37*
G36*
X148107142Y-94288242D02*
G01*
X148255101Y-94349529D01*
X148388255Y-94438499D01*
X148501501Y-94551745D01*
X148590471Y-94684899D01*
X148651758Y-94832858D01*
X148683000Y-94989925D01*
X148683000Y-95150075D01*
X148651758Y-95307142D01*
X148590471Y-95455101D01*
X148501501Y-95588255D01*
X148388255Y-95701501D01*
X148255101Y-95790471D01*
X148107142Y-95851758D01*
X147950075Y-95883000D01*
X147789925Y-95883000D01*
X147632858Y-95851758D01*
X147484899Y-95790471D01*
X147351745Y-95701501D01*
X147238499Y-95588255D01*
X147149529Y-95455101D01*
X147088242Y-95307142D01*
X147057000Y-95150075D01*
X147057000Y-94989925D01*
X147088242Y-94832858D01*
X147149529Y-94684899D01*
X147238499Y-94551745D01*
X147351745Y-94438499D01*
X147484899Y-94349529D01*
X147632858Y-94288242D01*
X147789925Y-94257000D01*
X147950075Y-94257000D01*
X148107142Y-94288242D01*
X148107142Y-94288242D01*
G37*
G36*
X145567142Y-94288242D02*
G01*
X145715101Y-94349529D01*
X145848255Y-94438499D01*
X145961501Y-94551745D01*
X146050471Y-94684899D01*
X146111758Y-94832858D01*
X146143000Y-94989925D01*
X146143000Y-95150075D01*
X146111758Y-95307142D01*
X146050471Y-95455101D01*
X145961501Y-95588255D01*
X145848255Y-95701501D01*
X145715101Y-95790471D01*
X145567142Y-95851758D01*
X145410075Y-95883000D01*
X145249925Y-95883000D01*
X145092858Y-95851758D01*
X144944899Y-95790471D01*
X144811745Y-95701501D01*
X144698499Y-95588255D01*
X144609529Y-95455101D01*
X144548242Y-95307142D01*
X144517000Y-95150075D01*
X144517000Y-94989925D01*
X144548242Y-94832858D01*
X144609529Y-94684899D01*
X144698499Y-94551745D01*
X144811745Y-94438499D01*
X144944899Y-94349529D01*
X145092858Y-94288242D01*
X145249925Y-94257000D01*
X145410075Y-94257000D01*
X145567142Y-94288242D01*
X145567142Y-94288242D01*
G37*
G36*
X137947142Y-94288242D02*
G01*
X138095101Y-94349529D01*
X138228255Y-94438499D01*
X138341501Y-94551745D01*
X138430471Y-94684899D01*
X138491758Y-94832858D01*
X138523000Y-94989925D01*
X138523000Y-95150075D01*
X138491758Y-95307142D01*
X138430471Y-95455101D01*
X138341501Y-95588255D01*
X138228255Y-95701501D01*
X138095101Y-95790471D01*
X137947142Y-95851758D01*
X137790075Y-95883000D01*
X137629925Y-95883000D01*
X137472858Y-95851758D01*
X137324899Y-95790471D01*
X137191745Y-95701501D01*
X137078499Y-95588255D01*
X136989529Y-95455101D01*
X136928242Y-95307142D01*
X136897000Y-95150075D01*
X136897000Y-94989925D01*
X136928242Y-94832858D01*
X136989529Y-94684899D01*
X137078499Y-94551745D01*
X137191745Y-94438499D01*
X137324899Y-94349529D01*
X137472858Y-94288242D01*
X137629925Y-94257000D01*
X137790075Y-94257000D01*
X137947142Y-94288242D01*
X137947142Y-94288242D01*
G37*
G36*
X135407142Y-94288242D02*
G01*
X135555101Y-94349529D01*
X135688255Y-94438499D01*
X135801501Y-94551745D01*
X135890471Y-94684899D01*
X135951758Y-94832858D01*
X135983000Y-94989925D01*
X135983000Y-95150075D01*
X135951758Y-95307142D01*
X135890471Y-95455101D01*
X135801501Y-95588255D01*
X135688255Y-95701501D01*
X135555101Y-95790471D01*
X135407142Y-95851758D01*
X135250075Y-95883000D01*
X135089925Y-95883000D01*
X134932858Y-95851758D01*
X134784899Y-95790471D01*
X134651745Y-95701501D01*
X134538499Y-95588255D01*
X134449529Y-95455101D01*
X134388242Y-95307142D01*
X134357000Y-95150075D01*
X134357000Y-94989925D01*
X134388242Y-94832858D01*
X134449529Y-94684899D01*
X134538499Y-94551745D01*
X134651745Y-94438499D01*
X134784899Y-94349529D01*
X134932858Y-94288242D01*
X135089925Y-94257000D01*
X135250075Y-94257000D01*
X135407142Y-94288242D01*
X135407142Y-94288242D01*
G37*
G36*
X132867142Y-94288242D02*
G01*
X133015101Y-94349529D01*
X133148255Y-94438499D01*
X133261501Y-94551745D01*
X133350471Y-94684899D01*
X133411758Y-94832858D01*
X133443000Y-94989925D01*
X133443000Y-95150075D01*
X133411758Y-95307142D01*
X133350471Y-95455101D01*
X133261501Y-95588255D01*
X133148255Y-95701501D01*
X133015101Y-95790471D01*
X132867142Y-95851758D01*
X132710075Y-95883000D01*
X132549925Y-95883000D01*
X132392858Y-95851758D01*
X132244899Y-95790471D01*
X132111745Y-95701501D01*
X131998499Y-95588255D01*
X131909529Y-95455101D01*
X131848242Y-95307142D01*
X131817000Y-95150075D01*
X131817000Y-94989925D01*
X131848242Y-94832858D01*
X131909529Y-94684899D01*
X131998499Y-94551745D01*
X132111745Y-94438499D01*
X132244899Y-94349529D01*
X132392858Y-94288242D01*
X132549925Y-94257000D01*
X132710075Y-94257000D01*
X132867142Y-94288242D01*
X132867142Y-94288242D01*
G37*
G36*
X130327142Y-94288242D02*
G01*
X130475101Y-94349529D01*
X130608255Y-94438499D01*
X130721501Y-94551745D01*
X130810471Y-94684899D01*
X130871758Y-94832858D01*
X130903000Y-94989925D01*
X130903000Y-95150075D01*
X130871758Y-95307142D01*
X130810471Y-95455101D01*
X130721501Y-95588255D01*
X130608255Y-95701501D01*
X130475101Y-95790471D01*
X130327142Y-95851758D01*
X130170075Y-95883000D01*
X130009925Y-95883000D01*
X129852858Y-95851758D01*
X129704899Y-95790471D01*
X129571745Y-95701501D01*
X129458499Y-95588255D01*
X129369529Y-95455101D01*
X129308242Y-95307142D01*
X129277000Y-95150075D01*
X129277000Y-94989925D01*
X129308242Y-94832858D01*
X129369529Y-94684899D01*
X129458499Y-94551745D01*
X129571745Y-94438499D01*
X129704899Y-94349529D01*
X129852858Y-94288242D01*
X130009925Y-94257000D01*
X130170075Y-94257000D01*
X130327142Y-94288242D01*
X130327142Y-94288242D01*
G37*
G36*
X125247142Y-94288242D02*
G01*
X125395101Y-94349529D01*
X125528255Y-94438499D01*
X125641501Y-94551745D01*
X125730471Y-94684899D01*
X125791758Y-94832858D01*
X125823000Y-94989925D01*
X125823000Y-95150075D01*
X125791758Y-95307142D01*
X125730471Y-95455101D01*
X125641501Y-95588255D01*
X125528255Y-95701501D01*
X125395101Y-95790471D01*
X125247142Y-95851758D01*
X125090075Y-95883000D01*
X124929925Y-95883000D01*
X124772858Y-95851758D01*
X124624899Y-95790471D01*
X124491745Y-95701501D01*
X124378499Y-95588255D01*
X124289529Y-95455101D01*
X124228242Y-95307142D01*
X124197000Y-95150075D01*
X124197000Y-94989925D01*
X124228242Y-94832858D01*
X124289529Y-94684899D01*
X124378499Y-94551745D01*
X124491745Y-94438499D01*
X124624899Y-94349529D01*
X124772858Y-94288242D01*
X124929925Y-94257000D01*
X125090075Y-94257000D01*
X125247142Y-94288242D01*
X125247142Y-94288242D01*
G37*
G36*
X127787142Y-94288242D02*
G01*
X127935101Y-94349529D01*
X128068255Y-94438499D01*
X128181501Y-94551745D01*
X128270471Y-94684899D01*
X128331758Y-94832858D01*
X128363000Y-94989925D01*
X128363000Y-95150075D01*
X128331758Y-95307142D01*
X128270471Y-95455101D01*
X128181501Y-95588255D01*
X128068255Y-95701501D01*
X127935101Y-95790471D01*
X127787142Y-95851758D01*
X127630075Y-95883000D01*
X127469925Y-95883000D01*
X127312858Y-95851758D01*
X127164899Y-95790471D01*
X127031745Y-95701501D01*
X126918499Y-95588255D01*
X126829529Y-95455101D01*
X126768242Y-95307142D01*
X126737000Y-95150075D01*
X126737000Y-94989925D01*
X126768242Y-94832858D01*
X126829529Y-94684899D01*
X126918499Y-94551745D01*
X127031745Y-94438499D01*
X127164899Y-94349529D01*
X127312858Y-94288242D01*
X127469925Y-94257000D01*
X127630075Y-94257000D01*
X127787142Y-94288242D01*
X127787142Y-94288242D01*
G37*
G36*
X140487142Y-94288242D02*
G01*
X140635101Y-94349529D01*
X140768255Y-94438499D01*
X140881501Y-94551745D01*
X140970471Y-94684899D01*
X141031758Y-94832858D01*
X141063000Y-94989925D01*
X141063000Y-95150075D01*
X141031758Y-95307142D01*
X140970471Y-95455101D01*
X140881501Y-95588255D01*
X140768255Y-95701501D01*
X140635101Y-95790471D01*
X140487142Y-95851758D01*
X140330075Y-95883000D01*
X140169925Y-95883000D01*
X140012858Y-95851758D01*
X139864899Y-95790471D01*
X139731745Y-95701501D01*
X139618499Y-95588255D01*
X139529529Y-95455101D01*
X139468242Y-95307142D01*
X139437000Y-95150075D01*
X139437000Y-94989925D01*
X139468242Y-94832858D01*
X139529529Y-94684899D01*
X139618499Y-94551745D01*
X139731745Y-94438499D01*
X139864899Y-94349529D01*
X140012858Y-94288242D01*
X140169925Y-94257000D01*
X140330075Y-94257000D01*
X140487142Y-94288242D01*
X140487142Y-94288242D01*
G37*
G36*
X117627142Y-94288242D02*
G01*
X117775101Y-94349529D01*
X117908255Y-94438499D01*
X118021501Y-94551745D01*
X118110471Y-94684899D01*
X118171758Y-94832858D01*
X118203000Y-94989925D01*
X118203000Y-95150075D01*
X118171758Y-95307142D01*
X118110471Y-95455101D01*
X118021501Y-95588255D01*
X117908255Y-95701501D01*
X117775101Y-95790471D01*
X117627142Y-95851758D01*
X117470075Y-95883000D01*
X117309925Y-95883000D01*
X117152858Y-95851758D01*
X117004899Y-95790471D01*
X116871745Y-95701501D01*
X116758499Y-95588255D01*
X116669529Y-95455101D01*
X116608242Y-95307142D01*
X116577000Y-95150075D01*
X116577000Y-94989925D01*
X116608242Y-94832858D01*
X116669529Y-94684899D01*
X116758499Y-94551745D01*
X116871745Y-94438499D01*
X117004899Y-94349529D01*
X117152858Y-94288242D01*
X117309925Y-94257000D01*
X117470075Y-94257000D01*
X117627142Y-94288242D01*
X117627142Y-94288242D01*
G37*
G36*
X115087142Y-94288242D02*
G01*
X115235101Y-94349529D01*
X115368255Y-94438499D01*
X115481501Y-94551745D01*
X115570471Y-94684899D01*
X115631758Y-94832858D01*
X115663000Y-94989925D01*
X115663000Y-95150075D01*
X115631758Y-95307142D01*
X115570471Y-95455101D01*
X115481501Y-95588255D01*
X115368255Y-95701501D01*
X115235101Y-95790471D01*
X115087142Y-95851758D01*
X114930075Y-95883000D01*
X114769925Y-95883000D01*
X114612858Y-95851758D01*
X114464899Y-95790471D01*
X114331745Y-95701501D01*
X114218499Y-95588255D01*
X114129529Y-95455101D01*
X114068242Y-95307142D01*
X114037000Y-95150075D01*
X114037000Y-94989925D01*
X114068242Y-94832858D01*
X114129529Y-94684899D01*
X114218499Y-94551745D01*
X114331745Y-94438499D01*
X114464899Y-94349529D01*
X114612858Y-94288242D01*
X114769925Y-94257000D01*
X114930075Y-94257000D01*
X115087142Y-94288242D01*
X115087142Y-94288242D01*
G37*
G36*
X112547142Y-94288242D02*
G01*
X112695101Y-94349529D01*
X112828255Y-94438499D01*
X112941501Y-94551745D01*
X113030471Y-94684899D01*
X113091758Y-94832858D01*
X113123000Y-94989925D01*
X113123000Y-95150075D01*
X113091758Y-95307142D01*
X113030471Y-95455101D01*
X112941501Y-95588255D01*
X112828255Y-95701501D01*
X112695101Y-95790471D01*
X112547142Y-95851758D01*
X112390075Y-95883000D01*
X112229925Y-95883000D01*
X112072858Y-95851758D01*
X111924899Y-95790471D01*
X111791745Y-95701501D01*
X111678499Y-95588255D01*
X111589529Y-95455101D01*
X111528242Y-95307142D01*
X111497000Y-95150075D01*
X111497000Y-94989925D01*
X111528242Y-94832858D01*
X111589529Y-94684899D01*
X111678499Y-94551745D01*
X111791745Y-94438499D01*
X111924899Y-94349529D01*
X112072858Y-94288242D01*
X112229925Y-94257000D01*
X112390075Y-94257000D01*
X112547142Y-94288242D01*
X112547142Y-94288242D01*
G37*
G36*
X150647142Y-94288242D02*
G01*
X150795101Y-94349529D01*
X150928255Y-94438499D01*
X151041501Y-94551745D01*
X151130471Y-94684899D01*
X151191758Y-94832858D01*
X151223000Y-94989925D01*
X151223000Y-95150075D01*
X151191758Y-95307142D01*
X151130471Y-95455101D01*
X151041501Y-95588255D01*
X150928255Y-95701501D01*
X150795101Y-95790471D01*
X150647142Y-95851758D01*
X150490075Y-95883000D01*
X150329925Y-95883000D01*
X150172858Y-95851758D01*
X150024899Y-95790471D01*
X149891745Y-95701501D01*
X149778499Y-95588255D01*
X149689529Y-95455101D01*
X149628242Y-95307142D01*
X149597000Y-95150075D01*
X149597000Y-94989925D01*
X149628242Y-94832858D01*
X149689529Y-94684899D01*
X149778499Y-94551745D01*
X149891745Y-94438499D01*
X150024899Y-94349529D01*
X150172858Y-94288242D01*
X150329925Y-94257000D01*
X150490075Y-94257000D01*
X150647142Y-94288242D01*
X150647142Y-94288242D01*
G37*
G36*
X155727142Y-94288242D02*
G01*
X155875101Y-94349529D01*
X156008255Y-94438499D01*
X156121501Y-94551745D01*
X156210471Y-94684899D01*
X156271758Y-94832858D01*
X156303000Y-94989925D01*
X156303000Y-95150075D01*
X156271758Y-95307142D01*
X156210471Y-95455101D01*
X156121501Y-95588255D01*
X156008255Y-95701501D01*
X155875101Y-95790471D01*
X155727142Y-95851758D01*
X155570075Y-95883000D01*
X155409925Y-95883000D01*
X155252858Y-95851758D01*
X155104899Y-95790471D01*
X154971745Y-95701501D01*
X154858499Y-95588255D01*
X154769529Y-95455101D01*
X154708242Y-95307142D01*
X154677000Y-95150075D01*
X154677000Y-94989925D01*
X154708242Y-94832858D01*
X154769529Y-94684899D01*
X154858499Y-94551745D01*
X154971745Y-94438499D01*
X155104899Y-94349529D01*
X155252858Y-94288242D01*
X155409925Y-94257000D01*
X155570075Y-94257000D01*
X155727142Y-94288242D01*
X155727142Y-94288242D01*
G37*
G36*
X158267142Y-94288242D02*
G01*
X158415101Y-94349529D01*
X158548255Y-94438499D01*
X158661501Y-94551745D01*
X158750471Y-94684899D01*
X158811758Y-94832858D01*
X158843000Y-94989925D01*
X158843000Y-95150075D01*
X158811758Y-95307142D01*
X158750471Y-95455101D01*
X158661501Y-95588255D01*
X158548255Y-95701501D01*
X158415101Y-95790471D01*
X158267142Y-95851758D01*
X158110075Y-95883000D01*
X157949925Y-95883000D01*
X157792858Y-95851758D01*
X157644899Y-95790471D01*
X157511745Y-95701501D01*
X157398499Y-95588255D01*
X157309529Y-95455101D01*
X157248242Y-95307142D01*
X157217000Y-95150075D01*
X157217000Y-94989925D01*
X157248242Y-94832858D01*
X157309529Y-94684899D01*
X157398499Y-94551745D01*
X157511745Y-94438499D01*
X157644899Y-94349529D01*
X157792858Y-94288242D01*
X157949925Y-94257000D01*
X158110075Y-94257000D01*
X158267142Y-94288242D01*
X158267142Y-94288242D01*
G37*
G36*
X153187142Y-94288242D02*
G01*
X153335101Y-94349529D01*
X153468255Y-94438499D01*
X153581501Y-94551745D01*
X153670471Y-94684899D01*
X153731758Y-94832858D01*
X153763000Y-94989925D01*
X153763000Y-95150075D01*
X153731758Y-95307142D01*
X153670471Y-95455101D01*
X153581501Y-95588255D01*
X153468255Y-95701501D01*
X153335101Y-95790471D01*
X153187142Y-95851758D01*
X153030075Y-95883000D01*
X152869925Y-95883000D01*
X152712858Y-95851758D01*
X152564899Y-95790471D01*
X152431745Y-95701501D01*
X152318499Y-95588255D01*
X152229529Y-95455101D01*
X152168242Y-95307142D01*
X152137000Y-95150075D01*
X152137000Y-94989925D01*
X152168242Y-94832858D01*
X152229529Y-94684899D01*
X152318499Y-94551745D01*
X152431745Y-94438499D01*
X152564899Y-94349529D01*
X152712858Y-94288242D01*
X152869925Y-94257000D01*
X153030075Y-94257000D01*
X153187142Y-94288242D01*
X153187142Y-94288242D01*
G37*
G36*
X122707142Y-94288242D02*
G01*
X122855101Y-94349529D01*
X122988255Y-94438499D01*
X123101501Y-94551745D01*
X123190471Y-94684899D01*
X123251758Y-94832858D01*
X123283000Y-94989925D01*
X123283000Y-95150075D01*
X123251758Y-95307142D01*
X123190471Y-95455101D01*
X123101501Y-95588255D01*
X122988255Y-95701501D01*
X122855101Y-95790471D01*
X122707142Y-95851758D01*
X122550075Y-95883000D01*
X122389925Y-95883000D01*
X122232858Y-95851758D01*
X122084899Y-95790471D01*
X121951745Y-95701501D01*
X121838499Y-95588255D01*
X121749529Y-95455101D01*
X121688242Y-95307142D01*
X121657000Y-95150075D01*
X121657000Y-94989925D01*
X121688242Y-94832858D01*
X121749529Y-94684899D01*
X121838499Y-94551745D01*
X121951745Y-94438499D01*
X122084899Y-94349529D01*
X122232858Y-94288242D01*
X122389925Y-94257000D01*
X122550075Y-94257000D01*
X122707142Y-94288242D01*
X122707142Y-94288242D01*
G37*
G36*
X166947142Y-81328242D02*
G01*
X167095101Y-81389529D01*
X167228255Y-81478499D01*
X167341501Y-81591745D01*
X167430471Y-81724899D01*
X167491758Y-81872858D01*
X167523000Y-82029925D01*
X167523000Y-82190075D01*
X167491758Y-82347142D01*
X167430471Y-82495101D01*
X167341501Y-82628255D01*
X167228255Y-82741501D01*
X167095101Y-82830471D01*
X166947142Y-82891758D01*
X166790075Y-82923000D01*
X166629925Y-82923000D01*
X166472858Y-82891758D01*
X166324899Y-82830471D01*
X166191745Y-82741501D01*
X166078499Y-82628255D01*
X165989529Y-82495101D01*
X165928242Y-82347142D01*
X165897000Y-82190075D01*
X165897000Y-82029925D01*
X165928242Y-81872858D01*
X165989529Y-81724899D01*
X166078499Y-81591745D01*
X166191745Y-81478499D01*
X166324899Y-81389529D01*
X166472858Y-81328242D01*
X166629925Y-81297000D01*
X166790075Y-81297000D01*
X166947142Y-81328242D01*
X166947142Y-81328242D01*
G37*
G36*
X94811142Y-81328242D02*
G01*
X94959101Y-81389529D01*
X95092255Y-81478499D01*
X95205501Y-81591745D01*
X95294471Y-81724899D01*
X95355758Y-81872858D01*
X95387000Y-82029925D01*
X95387000Y-82190075D01*
X95355758Y-82347142D01*
X95294471Y-82495101D01*
X95205501Y-82628255D01*
X95092255Y-82741501D01*
X94959101Y-82830471D01*
X94811142Y-82891758D01*
X94654075Y-82923000D01*
X94493925Y-82923000D01*
X94336858Y-82891758D01*
X94188899Y-82830471D01*
X94055745Y-82741501D01*
X93942499Y-82628255D01*
X93853529Y-82495101D01*
X93792242Y-82347142D01*
X93761000Y-82190075D01*
X93761000Y-82029925D01*
X93792242Y-81872858D01*
X93853529Y-81724899D01*
X93942499Y-81591745D01*
X94055745Y-81478499D01*
X94188899Y-81389529D01*
X94336858Y-81328242D01*
X94493925Y-81297000D01*
X94654075Y-81297000D01*
X94811142Y-81328242D01*
X94811142Y-81328242D01*
G37*
G36*
X174548903Y-71318213D02*
G01*
X174771177Y-71362426D01*
X175189932Y-71535880D01*
X175566802Y-71787696D01*
X175887304Y-72108198D01*
X176139120Y-72485068D01*
X176312574Y-72903823D01*
X176401000Y-73348371D01*
X176401000Y-73801629D01*
X176312574Y-74246177D01*
X176139120Y-74664932D01*
X175887304Y-75041802D01*
X175566802Y-75362304D01*
X175189932Y-75614120D01*
X174771177Y-75787574D01*
X174548903Y-75831787D01*
X174326630Y-75876000D01*
X173873370Y-75876000D01*
X173651097Y-75831787D01*
X173428823Y-75787574D01*
X173010068Y-75614120D01*
X172633198Y-75362304D01*
X172312696Y-75041802D01*
X172060880Y-74664932D01*
X171887426Y-74246177D01*
X171799000Y-73801629D01*
X171799000Y-73348371D01*
X171887426Y-72903823D01*
X172060880Y-72485068D01*
X172312696Y-72108198D01*
X172633198Y-71787696D01*
X173010068Y-71535880D01*
X173428823Y-71362426D01*
X173651097Y-71318213D01*
X173873370Y-71274000D01*
X174326630Y-71274000D01*
X174548903Y-71318213D01*
X174548903Y-71318213D01*
G37*
M02*
