M48
; DRILL file {KiCad (5.1.0)-1} date 4/13/2019 9:09:31 PM
; FORMAT={-:-/ absolute / inch / decimal}
; #@! TF.CreationDate,2019-04-13T21:09:31-07:00
; #@! TF.GenerationSoftware,Kicad,Pcbnew,(5.1.0)-1
; #@! TF.FileFunction,Plated,1,2,PTH
FMAT,2
INCH
T1C0.0300
T2C0.1063
%
G90
G05
T1
X6.3988Y-3.7461
X6.3988Y-3.8461
X6.3988Y-3.9461
X6.3988Y-4.0461
X6.3988Y-4.1461
X6.3988Y-4.2461
X6.3988Y-4.3461
X6.3988Y-4.4461
X3.68Y-3.795
X3.68Y-4.695
X3.8Y-3.795
X4.12Y-3.795
X4.24Y-3.795
X4.24Y-4.695
X3.7234Y-3.2327
X6.5634Y-3.2327
X4.4217Y-3.7429
X4.4217Y-4.6429
X4.5217Y-3.7429
X4.5217Y-4.6429
X4.6217Y-3.7429
X4.6217Y-4.6429
X4.7217Y-3.7429
X4.7217Y-4.6429
X4.8217Y-3.7429
X4.8217Y-4.6429
X4.9217Y-3.7429
X4.9217Y-4.6429
X5.0217Y-3.7429
X5.0217Y-4.6429
X5.1217Y-3.7429
X5.1217Y-4.6429
X5.2217Y-3.7429
X5.2217Y-4.6429
X5.3217Y-3.7429
X5.3217Y-4.6429
X5.4217Y-3.7429
X5.4217Y-4.6429
X5.5217Y-3.7429
X5.5217Y-4.6429
X5.6217Y-3.7429
X5.6217Y-4.6429
X5.7217Y-3.7429
X5.7217Y-4.6429
X5.8217Y-3.7429
X5.8217Y-4.6429
X5.9217Y-3.7429
X5.9217Y-4.6429
X6.0217Y-3.7429
X6.0217Y-4.6429
X6.1217Y-3.7429
X6.1217Y-4.6429
X6.2217Y-3.7429
X6.2217Y-4.6429
T2
X3.6683Y-4.8878
X6.8543Y-4.8878
X6.8543Y-2.8967
T0
M30
